<svg width="1138" height="583" viewBox="0 0 1138 583" fill="none" xmlns="http://www.w3.org/2000/svg">
<path d="M580.702 5.5098H0V94.1117H184.388V582.62H287.358V92.9144H494.494L580.702 5.5098Z" fill="#E3BAD1"/>
<path d="M412.423 387.154C412.423 413.056 417.789 435.991 428.521 455.958C439.79 475.385 454.815 490.764 473.597 502.097C492.915 513.429 514.648 519.095 538.795 519.095C562.943 519.095 584.408 513.429 603.189 502.097C622.507 490.764 637.533 475.385 648.265 455.958C659.534 435.991 665.168 413.056 665.168 387.154C665.168 361.251 659.534 338.316 648.265 318.35C637.533 297.844 622.507 281.924 603.189 270.592C584.408 259.259 562.943 253.593 538.795 253.593C514.648 253.593 492.915 259.259 473.597 270.592C454.815 281.924 439.79 297.844 428.521 318.35C417.789 338.316 412.423 361.251 412.423 387.154ZM628.595 0.72168H712.609L482.451 240.642L477.621 236.595C488.354 223.104 500.696 214.2 514.648 209.882C529.136 205.565 545.503 203.407 563.748 203.407C586.823 203.407 608.287 207.994 628.142 217.168C648.533 226.341 666.242 239.293 681.267 256.022C696.829 272.75 708.903 292.447 717.488 315.112C726.074 337.237 730.367 361.251 730.367 387.154C730.367 426.008 721.781 460.005 704.61 489.146C687.975 518.286 665.168 540.951 636.191 557.14C607.75 573.329 575.285 581.424 538.795 581.424C502.842 581.424 470.377 573.329 441.4 557.14C412.423 540.951 389.348 518.286 372.176 489.146C355.541 460.005 347.224 426.008 347.224 387.154C347.224 363.949 350.443 342.364 356.883 322.397C363.322 302.43 371.17 282.093 382.64 269.782C407.234 231.121 527.701 110.312 628.595 0.72168Z" fill="#E3BAD1"/>
<path d="M819.512 387.154C819.512 413.056 824.879 435.991 835.611 455.958C846.88 475.385 861.905 490.764 880.687 502.097C900.005 513.429 921.738 519.095 945.885 519.095C970.033 519.095 991.498 513.429 1010.28 502.097C1029.6 490.764 1044.62 475.385 1055.35 455.958C1066.62 435.991 1072.26 413.056 1072.26 387.154C1072.26 361.251 1066.62 338.316 1055.35 318.35C1044.62 297.844 1029.6 281.924 1010.28 270.592C991.498 259.259 970.033 253.593 945.885 253.593C921.738 253.593 900.005 259.259 880.687 270.592C861.905 281.924 846.88 297.844 835.611 318.35C824.879 338.316 819.512 361.251 819.512 387.154ZM1035.68 0.72168H1119.7L889.541 240.642L884.711 236.595C895.443 223.104 907.786 214.2 921.738 209.882C936.226 205.565 952.593 203.407 970.838 203.407C993.912 203.407 1015.38 207.994 1035.23 217.168C1055.62 226.341 1073.33 239.293 1088.36 256.022C1103.92 272.75 1115.99 292.447 1124.58 315.112C1133.16 337.237 1137.46 361.251 1137.46 387.154C1137.46 426.008 1128.87 460.005 1111.7 489.146C1095.06 518.286 1072.26 540.951 1043.28 557.14C1014.84 573.329 982.375 581.424 945.885 581.424C909.932 581.424 877.467 573.329 848.49 557.14C819.512 540.951 796.438 518.286 779.266 489.146C762.631 460.005 754.314 426.008 754.314 387.154C754.314 363.949 757.533 342.364 763.973 322.397C770.412 302.43 778.26 282.093 789.73 269.782C814.323 231.121 934.791 110.312 1035.68 0.72168Z" fill="#E3BAD1"/>
</svg>
